<svg width="111" height="38" viewBox="0 0 111 38" fill="none" xmlns="http://www.w3.org/2000/svg">
<g clip-path="url(#clip0_626_228)">
<path d="M29.3312 27.3449C27.4907 26.9355 25.5046 27.0339 23.6563 27.3331C21.7765 27.6362 20.2391 28.4216 18.5719 29.5161C16.9047 30.6105 14.6843 31.7266 12.4522 32.0356C10.22 32.3446 8.03901 32.4746 5.69071 31.9451C5.49387 31.9057 5.33246 31.8368 5.15137 31.7896C6.7609 33.4697 8.66675 34.8384 10.7731 35.8267C14.8091 37.712 19.3841 38.1002 23.6801 36.9221C27.976 35.744 31.7129 33.0763 34.2227 29.396L34.2876 29.3015C32.581 28.5574 31.0201 27.648 29.3312 27.3449Z" fill="url(#paint0_linear_626_228)"/>
<path d="M34.8248 23.1683C32.8997 22.4006 31.1991 21.316 29.3271 20.9794C27.4867 20.572 25.5005 20.6704 23.6522 20.9794C21.7724 21.2806 20.2351 22.0679 18.5678 23.1604C16.9006 24.2529 14.6802 25.3709 12.4481 25.68C10.2159 25.989 8.03493 26.1209 5.68663 25.5894C3.68083 25.18 1.95651 24.2115 0.545166 23.5797C0.633744 23.9202 2.90725 26.1386 5.85984 27.4869C6.17085 27.6287 6.48973 27.7665 6.81452 27.8806C8.34593 28.4515 10.2494 28.607 12.0268 28.544C13.8043 28.481 15.3928 27.9535 17.1939 27.0578C18.995 26.1622 21.2468 25.304 23.3983 25.241C25.5497 25.178 27.6599 25.2941 29.6972 25.9929C30.7091 26.3312 31.6761 26.7912 32.5769 27.3629C33.3233 27.7096 34.0466 28.1041 34.7422 28.544C35.5795 27.1685 36.2352 25.6904 36.6929 24.1466C36.7322 24.0167 36.7716 23.8887 36.807 23.7529C36.1296 23.6199 35.466 23.4242 34.8248 23.1683Z" fill="url(#paint1_linear_626_228)"/>
<path d="M37.4704 18.1583C37.4605 18.0166 37.4507 17.8768 37.4428 17.7371C36.1898 17.4549 34.983 16.997 33.8583 16.3769C32.319 15.6781 30.8801 14.8927 29.331 14.6152C27.4906 14.2077 25.5045 14.3042 23.6561 14.6053C21.7763 14.9065 20.239 15.6919 18.5717 16.7863C16.9045 17.8807 14.6842 18.9968 12.452 19.3059C10.2198 19.6149 8.03884 19.7468 5.69054 19.2153C3.42295 18.7508 1.92696 17.9811 0.00383734 16.9713C-0.0217518 17.2469 2.7596 19.8452 5.50158 21.0499C5.92881 21.2402 6.37129 21.3943 6.82434 21.5105C8.35576 22.0833 10.2592 22.2388 12.0367 22.1758C13.8141 22.1128 15.4026 21.5853 17.2037 20.6897C19.0048 19.794 21.2566 18.9338 23.4081 18.8728C25.5478 18.7803 27.6697 18.926 29.707 19.6228C30.7108 19.9591 31.67 20.4165 32.5631 20.9849C33.7816 21.5361 34.8662 22.2742 35.9448 22.9277C36.2677 23.0589 36.5957 23.1836 36.929 23.3017C37.3013 21.8272 37.4924 20.3129 37.4979 18.7921C37.4959 18.5795 37.4841 18.3669 37.4704 18.1583Z" fill="url(#paint2_linear_626_228)"/>
<path d="M35.943 11.3477C35.9135 11.2749 35.884 11.202 35.8525 11.1312C35.3352 10.9439 34.8285 10.7284 34.3349 10.4855C33.9648 10.2887 33.5908 10.0919 33.205 9.89501C33.1007 9.83793 32.9963 9.78085 32.894 9.7218C32.2798 9.38126 31.6716 9.05254 31.0142 8.75531C30.4702 8.53461 29.9067 8.36524 29.3312 8.24943C27.4907 7.84197 25.5046 7.9404 23.6563 8.23959C21.7765 8.54273 20.2391 9.32812 18.5719 10.4225C16.9047 11.517 14.6843 12.6311 12.4521 12.9421C10.22 13.2531 8.039 13.3811 5.6907 12.8516C4.11598 12.5268 2.71054 11.8516 1.49013 11.267C1.38384 11.513 3.85221 14.072 6.12965 14.9381C6.35577 15.0248 6.58802 15.0945 6.8245 15.1467C8.35591 15.7175 10.2594 15.873 12.0368 15.812C13.8143 15.751 15.4028 15.2215 17.2039 14.3239C19.005 13.4263 21.2568 12.5701 23.4083 12.5071C25.5479 12.4146 27.6698 12.5602 29.7071 13.259C30.716 13.596 31.6804 14.054 32.579 14.6231C33.5943 15.1134 34.5761 15.6704 35.5179 16.2903C36.127 16.5529 36.758 16.7617 37.4036 16.9143C37.2088 14.9942 36.716 13.1161 35.943 11.3477Z" fill="url(#paint3_linear_626_228)"/>
<path d="M28.3468 2.67296C24.4152 0.313756 19.7556 -0.523336 15.2487 0.319935C10.7418 1.1632 6.70005 3.6284 3.88745 7.24949C4.64578 7.75619 5.44357 8.20117 6.27315 8.58013C6.45227 8.65493 6.63337 8.72382 6.81643 8.77697C8.34784 9.3478 10.2513 9.5033 12.0288 9.44032C13.8062 9.37733 15.3947 8.8498 17.1958 7.95417C18.9969 7.05855 21.2487 6.20033 23.4002 6.13734C25.5517 6.07435 27.6618 6.19049 29.6991 6.88927C30.2639 7.07101 30.8125 7.30016 31.3387 7.57427C32.1084 7.91087 32.7973 8.28684 33.4725 8.66083L33.7992 8.83995C34.1752 9.02498 34.5374 9.21789 34.8917 9.41276C34.9291 9.43047 34.9645 9.45213 35.0039 9.46984C33.4002 6.67407 31.1086 4.33444 28.3468 2.67296Z" fill="url(#paint4_linear_626_228)"/>
<path d="M54.7115 0.332664H51.2333L43.6688 19.7529H47.4087L48.826 15.9913C48.8929 16.0661 48.9441 16.1547 49.0228 16.2255C49.5197 16.7183 50.1109 17.106 50.7609 17.3652C51.4577 17.6425 52.2018 17.7816 52.9517 17.7746C53.555 17.7795 54.1556 17.6932 54.7331 17.5188C55.2709 17.3583 55.7793 17.1123 56.239 16.7904C56.5531 16.5625 56.8392 16.2982 57.0913 16.0031L58.5066 19.7568H62.2465L54.7115 0.332664ZM52.9734 14.8122C52.5457 14.8122 52.1244 14.7085 51.7456 14.51C51.3668 14.3116 51.0418 14.0242 50.7983 13.6726C50.5549 13.321 50.4003 12.9156 50.3479 12.4912C50.2954 12.0667 50.3466 11.6359 50.4971 11.2356L52.9714 4.66905L55.4477 11.2356C55.5981 11.6358 55.6494 12.0664 55.597 12.4907C55.5446 12.915 55.3902 13.3202 55.147 13.6718C54.9038 14.0234 54.579 14.3108 54.2005 14.5094C53.8219 14.708 53.4009 14.8119 52.9734 14.8122Z" fill="#FF7A00"/>
<path d="M52.7687 23.6797H55.4949L58.3353 32.9844L61.2033 23.6797H64.5948L59.9277 37.5983H57.1169L54.1328 28.2602L51.1467 37.5983H48.3339L43.6688 23.6856H47.0583L49.9283 32.9903L52.7687 23.6797Z" fill="#0F8BF4"/>
<path d="M75.6102 30.7818V28.8961H78.7971V32.7246C78.7811 32.9897 78.82 33.2552 78.9115 33.5045C79.0029 33.7538 79.1449 33.9815 79.3286 34.1734C79.6868 34.5211 80.1842 34.695 80.8206 34.695V37.8818C79.9853 37.8933 79.1583 37.7156 78.4014 37.3622C77.7032 37.0352 77.0997 36.536 76.6476 35.9115C76.0073 36.5319 75.2543 37.0243 74.4292 37.3622C72.906 37.9912 71.2119 38.0735 69.6349 37.5949C68.0579 37.1164 66.6952 36.1066 65.7785 34.7371C64.8617 33.3676 64.4474 31.723 64.6059 30.0826C64.7644 28.4422 65.4861 26.9073 66.6481 25.7388C67.3122 25.0811 68.0995 24.5608 68.9648 24.2075C69.8301 23.8542 70.7565 23.6749 71.6912 23.6798H78.7971V26.8686H71.6971C71.175 26.8636 70.6573 26.9647 70.1755 27.1659C69.7122 27.3612 69.2896 27.6416 68.9295 27.9926C68.5698 28.343 68.284 28.762 68.089 29.2248C67.6821 30.2134 67.6821 31.3227 68.089 32.3113C68.2813 32.7801 68.5673 33.2048 68.9295 33.5592C69.2902 33.9089 69.7127 34.1886 70.1755 34.384C70.6565 34.5887 71.1743 34.6925 71.6971 34.6891C72.2119 34.6925 72.7223 34.5936 73.1986 34.3981C73.6749 34.2027 74.1076 33.9146 74.4717 33.5505C74.8357 33.1865 75.1238 32.7537 75.3193 32.2774C75.5147 31.8011 75.6136 31.2907 75.6102 30.7759V30.7818Z" fill="#0F8BF4"/>
<path d="M80.2478 23.68H81.9859V20.8671H85.1747V23.6859H88.5072V26.8747H85.1747V31.5122C85.1747 32.5555 85.4594 33.3474 86.0289 33.8881C86.5985 34.4287 87.4245 34.6997 88.5072 34.701V37.8879C87.5916 37.8988 86.6819 37.74 85.8242 37.4194C85.0584 37.1333 84.3586 36.6947 83.7673 36.1301C83.1858 35.5626 82.7356 34.8746 82.4484 34.1145C82.1316 33.2818 81.9741 32.3971 81.9839 31.5063V26.8688H80.2458L80.2478 23.68Z" fill="#0F8BF4"/>
<path d="M88.9422 30.6381C88.9322 29.6459 89.1147 28.6613 89.4795 27.7386C89.8174 26.8781 90.3248 26.0942 90.9716 25.4336C91.618 24.78 92.3928 24.2673 93.247 23.9278C95.1027 23.2112 97.1588 23.2112 99.0145 23.9278C99.8687 24.2673 100.643 24.78 101.29 25.4336C101.937 26.0946 102.445 26.8784 102.784 27.7386C103.147 28.6617 103.329 29.6462 103.319 30.6381C103.319 30.7719 103.319 30.9018 103.306 31.0318C103.29 31.1924 103.266 31.3521 103.233 31.5101H92.19C92.3204 32.419 92.779 33.2487 93.4793 33.8426C94.1643 34.4135 95.0481 34.6989 96.1307 34.6989C96.8052 34.7115 97.4739 34.5723 98.0873 34.2914C98.6472 34.033 99.1243 33.6242 99.4652 33.1104H102.949C102.729 33.8207 102.397 34.4912 101.965 35.0965C101.545 35.6795 101.031 36.1885 100.444 36.6023C99.8427 37.0243 99.1782 37.3473 98.4751 37.559C97.7186 37.7857 96.9323 37.8978 96.1426 37.8916C95.1556 37.903 94.176 37.7211 93.2589 37.3562C92.4038 37.0202 91.6277 36.5107 90.9793 35.86C90.3308 35.2092 89.8242 34.4312 89.4913 33.5749C89.12 32.6407 88.9335 31.6433 88.9422 30.6381ZM99.9278 29.1874C99.6856 28.4146 99.1968 27.7425 98.5361 27.2741C97.8282 26.7931 96.9862 26.5485 96.1307 26.5753C95.2664 26.5465 94.4151 26.791 93.6978 27.2741C93.0404 27.7394 92.5603 28.4139 92.3357 29.1874H99.9278Z" fill="#0F8BF4"/>
<path d="M111 26.5753C109.976 26.5753 109.165 26.8555 108.565 27.4158C107.965 27.9762 107.668 28.7406 107.673 29.709V37.5984H104.485V29.8252C104.47 28.9181 104.625 28.0162 104.941 27.1659C105.229 26.4001 105.68 25.7064 106.263 25.1332C106.847 24.56 107.548 24.1211 108.319 23.8471C109.179 23.5379 110.087 23.3859 111 23.3983V26.5753Z" fill="#0F8BF4"/>
<path d="M66.2325 0.332664V19.7529H63.0437V0.332664H66.2325Z" fill="#FF7A00"/>
<path d="M71.7384 0.332664V6.97011C72.3188 6.52608 72.9641 6.17419 73.6517 5.92686C75.2687 5.37146 77.0339 5.43315 78.6081 6.10007C79.4228 6.45401 80.1588 6.96657 80.7734 7.60787C82.0587 8.97132 82.7699 10.7772 82.7595 12.6509C82.7772 14.0495 82.3752 15.4212 81.6053 16.589C80.8355 17.7568 79.7332 18.6669 78.4408 19.2017C77.5596 19.5708 76.6129 19.7583 75.6575 19.7529H68.5516V16.5641H75.6516C76.1741 16.5673 76.6918 16.4641 77.1732 16.261C77.6368 16.0651 78.06 15.7848 78.4211 15.4342C78.7816 15.0791 79.0674 14.6555 79.2616 14.1882C79.6658 13.1984 79.6658 12.0896 79.2616 11.0998C79.0647 10.6381 78.7792 10.2194 78.4211 9.86759C78.0594 9.5183 77.6363 9.2387 77.1732 9.04283C76.6925 8.83714 76.1744 8.73326 75.6516 8.73773C75.1191 8.73173 74.5911 8.8356 74.1005 9.04283C73.393 9.34178 72.7906 9.84457 72.3699 10.4871C71.9493 11.1297 71.7294 11.8829 71.7384 12.6509V14.5347H68.5516V0.332664H71.7384Z" fill="#FF7A00"/>
<path d="M94.9261 12.9422V11.0565H98.1149V14.883C98.0994 15.1485 98.1392 15.4144 98.2317 15.6637C98.3242 15.9131 98.4674 16.1406 98.6523 16.3318C99.0092 16.6795 99.5065 16.8534 100.144 16.8534V20.0422C99.3081 20.0543 98.4802 19.8759 97.7232 19.5206C97.0251 19.1943 96.4216 18.6957 95.9693 18.0718C95.3297 18.6917 94.5774 19.1834 93.7529 19.5206C91.981 20.2235 90.0057 20.213 88.2414 19.4911C86.9486 18.9517 85.8443 18.0419 85.0675 16.8762C84.2908 15.7105 83.8763 14.341 83.8763 12.9402C83.8763 11.5394 84.2908 10.1699 85.0675 9.00424C85.8443 7.83854 86.9486 6.92873 88.2414 6.38939C89.1221 6.0211 90.0681 5.83432 91.0227 5.84021H98.1247V9.02705H91.0129C90.4902 9.02398 89.9724 9.1278 89.4913 9.33215C89.029 9.52851 88.6067 9.80806 88.2453 10.1569C87.8867 10.5082 87.601 10.927 87.4048 11.3891C87.0006 12.3789 87.0006 13.4877 87.4048 14.4775C87.5978 14.9455 87.8837 15.3694 88.2453 15.7235C88.6061 16.0736 89.0286 16.3539 89.4913 16.5503C89.9726 16.754 90.4904 16.8571 91.0129 16.8534C91.5452 16.8595 92.0731 16.7563 92.564 16.5503C93.0268 16.3575 93.447 16.0751 93.8003 15.7194C94.1537 15.3637 94.4332 14.9416 94.623 14.4775C94.8257 13.9912 94.9288 13.4691 94.9261 12.9422Z" fill="#FF7A00"/>
</g>
<defs>
<linearGradient id="paint0_linear_626_228" x1="27.0557" y1="7.96209" x2="19.4597" y2="31.3368" gradientUnits="userSpaceOnUse">
<stop offset="0.05" stop-color="#FF7A00"/>
<stop offset="0.26" stop-color="#AE8052"/>
<stop offset="0.58" stop-color="#3D88C6"/>
<stop offset="0.72" stop-color="#0F8BF4"/>
</linearGradient>
<linearGradient id="paint1_linear_626_228" x1="24.101" y1="7.00379" x2="16.505" y2="30.3785" gradientUnits="userSpaceOnUse">
<stop offset="0.18" stop-color="#FF7A00"/>
<stop offset="0.35" stop-color="#AE8052"/>
<stop offset="0.61" stop-color="#3D88C6"/>
<stop offset="0.72" stop-color="#0F8BF4"/>
</linearGradient>
<linearGradient id="paint2_linear_626_228" x1="22.8629" y1="6.59985" x2="15.2668" y2="29.9746" gradientUnits="userSpaceOnUse">
<stop offset="0.18" stop-color="#FF7A00"/>
<stop offset="0.24" stop-color="#F27B0D"/>
<stop offset="0.34" stop-color="#D17D2F"/>
<stop offset="0.47" stop-color="#9A8166"/>
<stop offset="0.64" stop-color="#5086B2"/>
<stop offset="0.77" stop-color="#0F8BF4"/>
</linearGradient>
<linearGradient id="paint3_linear_626_228" x1="21.9713" y1="6.31056" x2="14.3753" y2="29.6853" gradientUnits="userSpaceOnUse">
<stop offset="0.18" stop-color="#FF7A00"/>
<stop offset="0.23" stop-color="#F97A06"/>
<stop offset="0.3" stop-color="#E77C19"/>
<stop offset="0.37" stop-color="#C97E37"/>
<stop offset="0.46" stop-color="#A08160"/>
<stop offset="0.55" stop-color="#6B8496"/>
<stop offset="0.65" stop-color="#2C89D6"/>
<stop offset="0.69" stop-color="#0F8BF4"/>
</linearGradient>
<linearGradient id="paint4_linear_626_228" x1="20.2941" y1="5.76532" x2="12.698" y2="29.1401" gradientUnits="userSpaceOnUse">
<stop offset="0.21" stop-color="#FF7A00"/>
<stop offset="0.37" stop-color="#AE8052"/>
<stop offset="0.61" stop-color="#3D88C6"/>
<stop offset="0.72" stop-color="#0F8BF4"/>
</linearGradient>
<clipPath id="clip0_626_228">
<rect width="111" height="37.8838" fill="white"/>
</clipPath>
</defs>
</svg>
