<svg width="95" height="33" viewBox="0 0 95 33" fill="none" xmlns="http://www.w3.org/2000/svg">
<g clip-path="url(#clip0_600_1598)">
<path d="M25.1574 23.2103C23.5952 22.8627 21.9094 22.9463 20.3405 23.2002C18.7449 23.4575 17.4401 24.1242 16.0249 25.0531C14.6098 25.9821 12.7251 26.9294 10.8305 27.1917C8.93584 27.454 7.08462 27.5643 5.0914 27.1149C4.92432 27.0814 4.78732 27.023 4.63361 26.9829C5.99977 28.409 7.61745 29.5707 9.40533 30.4096C12.8311 32.0098 16.7143 32.3394 20.3607 31.3394C24.0071 30.3394 27.179 28.0751 29.3092 24.9512L29.3643 24.871C27.9158 24.2395 26.5909 23.4676 25.1574 23.2103Z" fill="url(#paint0_linear_600_1598)"/>
<path d="M29.8203 19.6652C28.1863 19.0136 26.7428 18.093 25.1539 17.8073C23.5917 17.4614 21.9059 17.5449 20.3371 17.8073C18.7415 18.0629 17.4366 18.7312 16.0215 19.6585C14.6063 20.5857 12.7217 21.5347 10.827 21.7971C8.93237 22.0594 7.08116 22.1713 5.08793 21.7202C3.38542 21.3727 1.92182 20.5507 0.723877 20.0143C0.799062 20.3034 2.7288 22.1863 5.23496 23.3308C5.49894 23.4511 5.76961 23.5681 6.04528 23.665C7.34514 24.1495 8.96078 24.2815 10.4695 24.228C11.9782 24.1746 13.3265 23.7268 14.8553 22.9666C16.384 22.2064 18.2954 21.4779 20.1215 21.4245C21.9477 21.371 23.7387 21.4696 25.468 22.0627C26.3269 22.3498 27.1477 22.7403 27.9123 23.2256C28.5459 23.5198 29.1598 23.8547 29.7502 24.228C30.4609 23.0605 31.0174 21.8059 31.4059 20.4955C31.4393 20.3853 31.4727 20.2767 31.5028 20.1614C30.9278 20.0485 30.3646 19.8823 29.8203 19.6652Z" fill="url(#paint1_linear_600_1598)"/>
<path d="M32.0659 15.4127C32.0575 15.2924 32.0492 15.1738 32.0425 15.0551C30.979 14.8157 29.9547 14.427 29 13.9006C27.6935 13.3075 26.4721 12.6409 25.1572 12.4053C23.5951 12.0595 21.9093 12.1413 20.3404 12.397C18.7448 12.6526 17.44 13.3192 16.0248 14.2482C14.6097 15.1771 12.725 16.1244 10.8304 16.3868C8.93573 16.6491 7.08452 16.761 5.09129 16.3099C3.16656 15.9156 1.89677 15.2623 0.264431 14.4052C0.242711 14.6391 2.60351 16.8445 4.93089 17.8671C5.29353 18.0286 5.6691 18.1594 6.05365 18.258C7.35351 18.7442 8.96915 18.8762 10.4779 18.8227C11.9866 18.7693 13.3349 18.3215 14.8636 17.5613C16.3924 16.8011 18.3037 16.071 20.1299 16.0192C21.946 15.9407 23.7471 16.0643 25.4764 16.6557C26.3284 16.9412 27.1425 17.3295 27.9006 17.8119C28.9349 18.2797 29.8554 18.9063 30.771 19.461C31.045 19.5724 31.3235 19.6782 31.6064 19.7784C31.9224 18.5269 32.0846 17.2415 32.0893 15.9507C32.0876 15.7702 32.0776 15.5898 32.0659 15.4127Z" fill="url(#paint2_linear_600_1598)"/>
<path d="M30.7695 9.63188C30.7444 9.57006 30.7194 9.50824 30.6927 9.4481C30.2536 9.28914 29.8235 9.1062 29.4045 8.90008C29.0904 8.73301 28.7729 8.56593 28.4455 8.39885C28.3569 8.3504 28.2684 8.30195 28.1815 8.25183C27.6602 7.96278 27.1439 7.68376 26.5859 7.43148C26.1241 7.24414 25.6459 7.10039 25.1574 7.00209C23.5952 6.65624 21.9094 6.73978 20.3406 6.99374C18.745 7.25104 17.4401 7.91767 16.025 8.84662C14.6098 9.77557 12.7252 10.7212 10.8305 10.9852C8.93588 11.2492 7.08466 11.3578 5.09143 10.9084C3.75482 10.6327 2.56189 10.0596 1.52601 9.56338C1.43579 9.77223 3.53093 11.9442 5.46402 12.6794C5.65594 12.753 5.85308 12.8122 6.0538 12.8565C7.35366 13.341 8.96929 13.473 10.478 13.4212C11.9867 13.3694 13.335 12.92 14.8638 12.1581C16.3925 11.3962 18.3039 10.6694 20.13 10.616C21.9462 10.5374 23.7473 10.6611 25.4765 11.2542C26.3329 11.5402 27.1514 11.929 27.9142 12.412C28.7759 12.8282 29.6093 13.301 30.4086 13.8272C30.9257 14.05 31.4613 14.2272 32.0092 14.3568C31.8439 12.727 31.4256 11.1329 30.7695 9.63188Z" fill="url(#paint3_linear_600_1598)"/>
<path d="M24.3218 2.2688C20.9848 0.266315 17.0297 -0.444206 13.2042 0.271559C9.37882 0.987324 5.94818 3.07977 3.56085 6.15334C4.20452 6.58343 4.88168 6.96112 5.58582 7.28278C5.73786 7.34627 5.89157 7.40475 6.04696 7.44986C7.34682 7.93438 8.96245 8.06637 10.4712 8.01291C11.9799 7.95944 13.3282 7.51168 14.8569 6.75148C16.3857 5.99127 18.297 5.26282 20.1232 5.20935C21.9493 5.15589 23.7404 5.25447 25.4697 5.84759C25.9491 6.00185 26.4147 6.19635 26.8614 6.42902C27.5147 6.71472 28.0995 7.03384 28.6725 7.35128L28.9499 7.50332C29.269 7.66037 29.5764 7.82411 29.8772 7.98952C29.9089 8.00455 29.939 8.02293 29.9724 8.03797C28.6111 5.66493 26.6661 3.67906 24.3218 2.2688Z" fill="url(#paint4_linear_600_1598)"/>
<path d="M46.7001 0.282364H43.7479L37.3271 16.7662H40.5016L41.7045 13.5733C41.7613 13.6368 41.8048 13.712 41.8716 13.7722C42.2934 14.1905 42.7951 14.5195 43.3469 14.7395C43.9383 14.9749 44.5699 15.0929 45.2064 15.0871C45.7185 15.0911 46.2283 15.0179 46.7185 14.8699C47.1749 14.7336 47.6065 14.5249 47.9966 14.2517C48.2633 14.0582 48.5061 13.8339 48.7201 13.5834L49.9214 16.7695H53.0958L46.7001 0.282364ZM45.2248 12.5726C44.8618 12.5725 44.5042 12.4845 44.1827 12.3161C43.8612 12.1476 43.5853 11.9037 43.3786 11.6053C43.172 11.3068 43.0408 10.9627 42.9963 10.6025C42.9518 10.2422 42.9952 9.87654 43.123 9.53676L45.2232 3.96307L47.325 9.53676C47.4527 9.8764 47.4962 10.2419 47.4517 10.6021C47.4073 10.9622 47.2762 11.3062 47.0698 11.6046C46.8634 11.903 46.5877 12.1469 46.2664 12.3155C45.9451 12.4841 45.5877 12.5723 45.2248 12.5726Z" fill="#FF7A00"/>
<path d="M45.0511 20.0993H47.3651L49.776 27.997L52.2103 20.0993H55.089L51.1277 31.9133H48.7418L46.2089 23.9871L43.6743 31.9133H41.2868L37.3271 20.1043H40.2042L42.6401 28.002L45.0511 20.0993Z" fill="#0F8BF4"/>
<path d="M64.4389 26.1275V24.5269H67.1439V27.7765C67.1303 28.0015 67.1633 28.2269 67.241 28.4385C67.3186 28.6501 67.4391 28.8434 67.595 29.0062C67.8991 29.3014 68.3212 29.449 68.8614 29.449V32.154C68.1525 32.1637 67.4505 32.0129 66.8081 31.7129C66.2154 31.4353 65.7032 31.0116 65.3194 30.4815C64.7759 31.0082 64.1368 31.4261 63.4364 31.7129C62.1435 32.2468 60.7056 32.3166 59.3671 31.9104C58.0285 31.5043 56.8719 30.6471 56.0937 29.4847C55.3156 28.3223 54.9639 26.9263 55.0985 25.534C55.233 24.1417 55.8455 22.8389 56.8319 21.847C57.3956 21.2888 58.0638 20.8471 58.7983 20.5472C59.5327 20.2474 60.3191 20.0952 61.1124 20.0993H67.1439V22.806H61.1174C60.6743 22.8017 60.2349 22.8875 59.8259 23.0583C59.4327 23.2241 59.074 23.4621 58.7683 23.76C58.463 24.0574 58.2204 24.4131 58.0549 24.8059C57.7096 25.645 57.7096 26.5866 58.0549 27.4257C58.2181 27.8237 58.4609 28.1841 58.7683 28.4849C59.0745 28.7818 59.4331 29.0191 59.8259 29.185C60.2342 29.3588 60.6737 29.4469 61.1174 29.444C61.5544 29.4469 61.9876 29.3629 62.3919 29.197C62.7962 29.0311 63.1635 28.7866 63.4725 28.4776C63.7815 28.1686 64.0261 27.8012 64.192 27.397C64.3578 26.9927 64.4418 26.5595 64.4389 26.1225V26.1275Z" fill="#0F8BF4"/>
<path d="M68.3752 20.0995H69.8505V17.7119H72.5571V20.1045H75.3858V22.8111H72.5571V26.7475C72.5571 27.633 72.7988 28.3052 73.2823 28.7641C73.7657 29.223 74.4668 29.453 75.3858 29.4541V32.1591C74.6086 32.1684 73.8365 32.0335 73.1085 31.7614C72.4584 31.5186 71.8645 31.1463 71.3625 30.6671C70.869 30.1854 70.4869 29.6014 70.2431 28.9562C69.9742 28.2495 69.8405 27.4986 69.8488 26.7425V22.8061H68.3735L68.3752 20.0995Z" fill="#0F8BF4"/>
<path d="M75.755 26.0055C75.7465 25.1634 75.9014 24.3276 76.2111 23.5444C76.4979 22.814 76.9286 22.1487 77.4775 21.588C78.0262 21.0332 78.6838 20.598 79.4089 20.3098C80.9841 19.7016 82.7292 19.7016 84.3043 20.3098C85.0294 20.598 85.687 21.0332 86.2357 21.588C86.7846 22.149 87.2158 22.8143 87.5038 23.5444C87.8121 24.3279 87.9664 25.1635 87.9583 26.0055C87.9583 26.1191 87.9583 26.2294 87.9466 26.3396C87.9333 26.476 87.9126 26.6115 87.8848 26.7456H78.5117C78.6224 27.5171 79.0117 28.2214 79.6061 28.7255C80.1875 29.21 80.9377 29.4523 81.8566 29.4523C82.4291 29.463 82.9967 29.3448 83.5174 29.1064C83.9926 28.8871 84.3975 28.5401 84.6869 28.104H87.6442C87.4574 28.7069 87.1754 29.276 86.8088 29.7898C86.4523 30.2847 86.0158 30.7166 85.5173 31.0679C85.0073 31.4261 84.4432 31.7003 83.8465 31.8799C83.2044 32.0724 82.537 32.1676 81.8666 32.1623C81.0289 32.1719 80.1974 32.0175 79.419 31.7078C78.6932 31.4226 78.0344 30.9902 77.484 30.4378C76.9337 29.8854 76.5037 29.225 76.2211 28.4983C75.9059 27.7053 75.7476 26.8587 75.755 26.0055ZM85.0795 24.7741C84.874 24.1182 84.4591 23.5477 83.8983 23.1501C83.2974 22.7419 82.5827 22.5343 81.8566 22.557C81.123 22.5325 80.4004 22.7401 79.7915 23.1501C79.2336 23.5451 78.826 24.1176 78.6354 24.7741H85.0795Z" fill="#0F8BF4"/>
<path d="M94.4776 22.5571C93.6088 22.5571 92.9199 22.7949 92.4109 23.2705C91.9019 23.7461 91.6496 24.3949 91.654 25.2169V31.9134H88.9474V25.3155C88.9352 24.5455 89.0666 23.7801 89.335 23.0583C89.579 22.4084 89.962 21.8195 90.4572 21.333C90.9524 20.8464 91.5479 20.4739 92.202 20.2414C92.9316 19.9789 93.7024 19.8499 94.4776 19.8604V22.5571Z" fill="#0F8BF4"/>
<path d="M56.4791 0.282364V16.7662H53.7725V0.282364H56.4791Z" fill="#FF7A00"/>
<path d="M61.1525 0.282364V5.9162C61.6451 5.53931 62.1928 5.24063 62.7765 5.03069C64.149 4.55927 65.6473 4.61163 66.9835 5.17772C67.675 5.47814 68.2997 5.9132 68.8213 6.45753C69.9123 7.61482 70.516 9.14762 70.5071 10.738C70.5222 11.9252 70.181 13.0895 69.5275 14.0807C68.8741 15.0719 67.9384 15.8444 66.8415 16.2984C66.0935 16.6116 65.2899 16.7707 64.479 16.7662H58.4475V14.0595H64.474C64.9175 14.0622 65.3569 13.9747 65.7655 13.8022C66.159 13.636 66.5182 13.3981 66.8248 13.1005C67.1307 12.7991 67.3733 12.4395 67.5382 12.0429C67.8813 11.2028 67.8813 10.2616 67.5382 9.42148C67.371 9.02955 67.1287 8.67421 66.8248 8.37558C66.5177 8.0791 66.1586 7.84178 65.7655 7.67552C65.3575 7.50093 64.9177 7.41276 64.474 7.41655C64.022 7.41146 63.5738 7.49962 63.1574 7.67552C62.5569 7.92927 62.0456 8.35603 61.6885 8.90144C61.3315 9.44685 61.1449 10.0862 61.1525 10.738V12.337H58.4475V0.282364H61.1525Z" fill="#FF7A00"/>
<path d="M80.8341 10.9853V9.38469H83.5408V12.6327C83.5276 12.858 83.5614 13.0837 83.6399 13.2953C83.7184 13.507 83.84 13.7001 83.9969 13.8624C84.2998 14.1575 84.722 14.3051 85.2633 14.3051V17.0118C84.5536 17.022 83.8508 16.8706 83.2083 16.569C82.6158 16.292 82.1035 15.8689 81.7196 15.3393C81.1767 15.8654 80.5381 16.2828 79.8383 16.569C78.3343 17.1657 76.6577 17.1567 75.1602 16.5439C74.0629 16.0861 73.1255 15.3139 72.4662 14.3245C71.8069 13.335 71.4551 12.1726 71.4551 10.9836C71.4551 9.79462 71.8069 8.63222 72.4662 7.64277C73.1255 6.65332 74.0629 5.88108 75.1602 5.42329C75.9077 5.11069 76.7107 4.95215 77.521 4.95715H83.5491V7.66212H77.5126C77.069 7.65952 76.6295 7.74764 76.2211 7.92109C75.8287 8.08776 75.4702 8.32504 75.1635 8.62114C74.8591 8.91932 74.6166 9.27478 74.4501 9.66705C74.107 10.5072 74.107 11.4484 74.4501 12.2885C74.6139 12.6857 74.8566 13.0455 75.1635 13.3461C75.4697 13.6432 75.8283 13.8811 76.2211 14.0478C76.6296 14.2207 77.0691 14.3083 77.5126 14.3051C77.9644 14.3102 78.4125 14.2227 78.8292 14.0478C79.222 13.8842 79.5787 13.6445 79.8786 13.3426C80.1785 13.0406 80.4158 12.6824 80.5768 12.2885C80.7489 11.8757 80.8364 11.4325 80.8341 10.9853Z" fill="#FF7A00"/>
</g>
<defs>
<linearGradient id="paint0_linear_600_1598" x1="23.2259" y1="6.75819" x2="16.7784" y2="26.5986" gradientUnits="userSpaceOnUse">
<stop offset="0.05" stop-color="#FF7A00"/>
<stop offset="0.26" stop-color="#AE8052"/>
<stop offset="0.58" stop-color="#3D88C6"/>
<stop offset="0.72" stop-color="#0F8BF4"/>
</linearGradient>
<linearGradient id="paint1_linear_600_1598" x1="20.718" y1="5.94479" x2="14.2705" y2="25.7852" gradientUnits="userSpaceOnUse">
<stop offset="0.18" stop-color="#FF7A00"/>
<stop offset="0.35" stop-color="#AE8052"/>
<stop offset="0.61" stop-color="#3D88C6"/>
<stop offset="0.72" stop-color="#0F8BF4"/>
</linearGradient>
<linearGradient id="paint2_linear_600_1598" x1="19.6671" y1="5.60193" x2="13.2196" y2="25.4423" gradientUnits="userSpaceOnUse">
<stop offset="0.18" stop-color="#FF7A00"/>
<stop offset="0.24" stop-color="#F27B0D"/>
<stop offset="0.34" stop-color="#D17D2F"/>
<stop offset="0.47" stop-color="#9A8166"/>
<stop offset="0.64" stop-color="#5086B2"/>
<stop offset="0.77" stop-color="#0F8BF4"/>
</linearGradient>
<linearGradient id="paint3_linear_600_1598" x1="18.9104" y1="5.35638" x2="12.4629" y2="25.1968" gradientUnits="userSpaceOnUse">
<stop offset="0.18" stop-color="#FF7A00"/>
<stop offset="0.23" stop-color="#F97A06"/>
<stop offset="0.3" stop-color="#E77C19"/>
<stop offset="0.37" stop-color="#C97E37"/>
<stop offset="0.46" stop-color="#A08160"/>
<stop offset="0.55" stop-color="#6B8496"/>
<stop offset="0.65" stop-color="#2C89D6"/>
<stop offset="0.69" stop-color="#0F8BF4"/>
</linearGradient>
<linearGradient id="paint4_linear_600_1598" x1="17.4867" y1="4.89358" x2="11.0392" y2="24.734" gradientUnits="userSpaceOnUse">
<stop offset="0.21" stop-color="#FF7A00"/>
<stop offset="0.37" stop-color="#AE8052"/>
<stop offset="0.61" stop-color="#3D88C6"/>
<stop offset="0.72" stop-color="#0F8BF4"/>
</linearGradient>
<clipPath id="clip0_600_1598">
<rect width="94.2164" height="32.1556" fill="white" transform="translate(0.261169)"/>
</clipPath>
</defs>
</svg>
