<svg width="20" height="20" viewBox="0 0 20 20" fill="none" xmlns="http://www.w3.org/2000/svg">
<path d="M15.6437 14.5489C14.662 14.331 13.6026 14.3834 12.6167 14.5426C11.6139 14.7039 10.7939 15.1217 9.90457 15.704C9.01524 16.2863 7.83087 16.8801 6.6402 17.0445C5.44953 17.209 4.28616 17.2781 3.03354 16.9964C2.92854 16.9754 2.84245 16.9388 2.74585 16.9136C3.6044 17.8076 4.62101 18.5358 5.74458 19.0616C7.89744 20.0647 10.3378 20.2712 12.6293 19.6444C14.9209 19.0176 16.9142 17.5982 18.2529 15.6401L18.2876 15.5899C17.3772 15.194 16.5446 14.7101 15.6437 14.5489Z" fill="url(#paint0_linear_394_1742)"/>
<path d="M18.5742 12.3267C17.5473 11.9183 16.6401 11.3412 15.6416 11.1621C14.6599 10.9453 13.6005 10.9977 12.6145 11.1621C11.6118 11.3224 10.7918 11.7413 9.90244 12.3225C9.01312 12.9038 7.82874 13.4986 6.63807 13.663C5.4474 13.8275 4.28403 13.8976 3.03141 13.6149C1.96149 13.397 1.04171 12.8818 0.288879 12.5456C0.336128 12.7268 1.54885 13.9071 3.12381 14.6244C3.28971 14.6999 3.4598 14.7732 3.63305 14.8339C4.44993 15.1376 5.46525 15.2204 6.41338 15.1868C7.36151 15.1533 8.20883 14.8727 9.16956 14.3961C10.1303 13.9196 11.3315 13.463 12.4791 13.4295C13.6267 13.396 14.7523 13.4578 15.839 13.8296C16.3788 14.0095 16.8946 14.2543 17.3751 14.5585C17.7732 14.7429 18.159 14.9528 18.5301 15.1868C18.9767 14.455 19.3265 13.6686 19.5706 12.8472C19.5916 12.7781 19.6126 12.71 19.6315 12.6377C19.2702 12.567 18.9162 12.4628 18.5742 12.3267Z" fill="url(#paint1_linear_394_1742)"/>
<path d="M19.9853 9.66111C19.9801 9.58571 19.9748 9.51135 19.9706 9.43699C19.3022 9.2869 18.6585 9.04326 18.0586 8.71332C17.2375 8.34153 16.47 7.92366 15.6437 7.776C14.6619 7.55921 13.6025 7.61052 12.6166 7.77076C11.6139 7.93099 10.7938 8.34886 9.9045 8.93115C9.01517 9.51345 7.8308 10.1073 6.64013 10.2717C5.44946 10.4361 4.28609 10.5063 3.03347 10.2235C1.8239 9.97635 1.02592 9.56686 9.34712e-05 9.0296C-0.0135562 9.17622 1.47006 10.5586 2.93267 11.1996C3.16056 11.3008 3.39659 11.3828 3.63825 11.4446C4.45513 11.7494 5.47046 11.8321 6.41859 11.7986C7.36671 11.7651 8.21404 11.4844 9.17477 11.0079C10.1355 10.5314 11.3367 10.0737 12.4843 10.0413C13.6256 9.99205 14.7575 10.0696 15.8442 10.4403C16.3797 10.6192 16.8913 10.8626 17.3677 11.165C18.0177 11.4583 18.5962 11.851 19.1716 12.1987C19.3438 12.2685 19.5188 12.3348 19.6966 12.3977C19.8951 11.6132 19.997 10.8075 20 9.99834C19.9989 9.88523 19.9927 9.77213 19.9853 9.66111Z" fill="url(#paint2_linear_394_1742)"/>
<path d="M19.1706 6.03752C19.1549 5.99877 19.1391 5.96002 19.1223 5.92232C18.8464 5.82268 18.5761 5.70801 18.3128 5.57881C18.1154 5.47408 17.9159 5.36935 17.7101 5.26462C17.6544 5.23425 17.5988 5.20388 17.5442 5.17246C17.2166 4.99128 16.8922 4.81639 16.5415 4.65825C16.2513 4.54082 15.9507 4.45071 15.6437 4.38909C14.662 4.1723 13.6026 4.22467 12.6167 4.38386C11.6139 4.54514 10.7939 4.96301 9.90458 5.5453C9.01525 6.12759 7.83088 6.72035 6.64021 6.88583C5.44954 7.0513 4.28617 7.11937 3.03355 6.83765C2.19357 6.66485 1.44389 6.30563 0.792906 5.99458C0.736208 6.12549 2.05288 7.48697 3.2677 7.94777C3.38831 7.9939 3.5122 8.03101 3.63834 8.05879C4.45522 8.3625 5.47054 8.44524 6.41867 8.41277C7.3668 8.3803 8.21412 8.09858 9.17485 7.62102C10.1356 7.14346 11.3367 6.68789 12.4844 6.65437C13.6257 6.60515 14.7576 6.68265 15.8443 7.05444C16.3825 7.23373 16.8968 7.47743 17.3762 7.78021C17.9178 8.04108 18.4415 8.33742 18.9438 8.66726C19.2688 8.80694 19.6053 8.91803 19.9497 8.99925C19.8458 7.97764 19.5829 6.97841 19.1706 6.03752Z" fill="url(#paint3_linear_394_1742)"/>
<path d="M15.1186 1.42215C13.0215 0.166934 10.5359 -0.278441 8.13192 0.170221C5.72788 0.618883 3.57194 1.93049 2.07166 3.85709C2.47616 4.12668 2.90171 4.36343 3.34422 4.56506C3.43977 4.60486 3.53637 4.64151 3.63402 4.66979C4.4509 4.9735 5.46622 5.05624 6.41435 5.02272C7.36247 4.98921 8.2098 4.70854 9.17053 4.23202C10.1313 3.7555 11.3324 3.29889 12.48 3.26537C13.6277 3.23186 14.7532 3.29365 15.84 3.66544C16.1413 3.76213 16.4339 3.88405 16.7146 4.02989C17.1251 4.20898 17.4926 4.40901 17.8528 4.608L18.0271 4.7033C18.2276 4.80174 18.4208 4.90438 18.6098 5.00806C18.6297 5.01749 18.6486 5.02901 18.6696 5.03843C17.8142 3.55094 16.5918 2.30614 15.1186 1.42215Z" fill="url(#paint4_linear_394_1742)"/>
<defs>
<linearGradient id="paint0_linear_394_1742" x1="14.43" y1="4.23622" x2="10.3969" y2="16.6788" gradientUnits="userSpaceOnUse">
<stop offset="0.05" stop-color="#FF7A00"/>
<stop offset="0.26" stop-color="#AE8052"/>
<stop offset="0.58" stop-color="#3D88C6"/>
<stop offset="0.72" stop-color="#0F8BF4"/>
</linearGradient>
<linearGradient id="paint1_linear_394_1742" x1="12.8539" y1="3.72638" x2="8.82081" y2="16.169" gradientUnits="userSpaceOnUse">
<stop offset="0.18" stop-color="#FF7A00"/>
<stop offset="0.35" stop-color="#AE8052"/>
<stop offset="0.61" stop-color="#3D88C6"/>
<stop offset="0.72" stop-color="#0F8BF4"/>
</linearGradient>
<linearGradient id="paint2_linear_394_1742" x1="12.1934" y1="3.51144" x2="8.16033" y2="15.9541" gradientUnits="userSpaceOnUse">
<stop offset="0.18" stop-color="#FF7A00"/>
<stop offset="0.24" stop-color="#F27B0D"/>
<stop offset="0.34" stop-color="#D17D2F"/>
<stop offset="0.47" stop-color="#9A8166"/>
<stop offset="0.64" stop-color="#5086B2"/>
<stop offset="0.77" stop-color="#0F8BF4"/>
</linearGradient>
<linearGradient id="paint3_linear_394_1742" x1="11.7179" y1="3.35751" x2="7.68478" y2="15.8001" gradientUnits="userSpaceOnUse">
<stop offset="0.18" stop-color="#FF7A00"/>
<stop offset="0.23" stop-color="#F97A06"/>
<stop offset="0.3" stop-color="#E77C19"/>
<stop offset="0.37" stop-color="#C97E37"/>
<stop offset="0.46" stop-color="#A08160"/>
<stop offset="0.55" stop-color="#6B8496"/>
<stop offset="0.65" stop-color="#2C89D6"/>
<stop offset="0.69" stop-color="#0F8BF4"/>
</linearGradient>
<linearGradient id="paint4_linear_394_1742" x1="10.8232" y1="3.06744" x2="6.79008" y2="15.5101" gradientUnits="userSpaceOnUse">
<stop offset="0.21" stop-color="#FF7A00"/>
<stop offset="0.37" stop-color="#AE8052"/>
<stop offset="0.61" stop-color="#3D88C6"/>
<stop offset="0.72" stop-color="#0F8BF4"/>
</linearGradient>
</defs>
</svg>
